<svg width="31" height="28" viewBox="0 0 31 28" fill="none" xmlns="http://www.w3.org/2000/svg">
<rect x="0.147461" width="30.8525" height="28" rx="13.8409" fill="#F0F0F0"/>
<path d="M16.3718 21.5039C16.3424 21.7281 16.2233 21.9349 16.0372 22.0848C15.8511 22.2348 15.6109 22.3176 15.362 22.3176C15.1131 22.3176 14.8729 22.2348 14.6868 22.0848C14.5007 21.9349 14.3816 21.7281 14.3522 21.5039M9.196 15.9896C9.63921 14.9715 9.80481 13.8714 9.67875 12.7827C9.62441 12.3357 9.63594 11.884 9.71303 11.4398C9.948 10.17 10.6713 9.01686 11.7544 8.1852C12.8375 7.35355 14.2103 6.89718 15.6291 6.89718C17.0479 6.89718 18.4207 7.35355 19.5038 8.1852C20.5869 9.01686 21.3102 10.17 21.5451 11.4398C21.6222 11.884 21.6338 12.3357 21.5794 12.7827C21.4563 13.8713 21.6218 14.9709 22.0622 15.9896C22.2419 16.3746 22.3203 16.7922 22.2912 17.2095C22.2621 17.6267 22.1263 18.032 21.8945 18.3933C21.6627 18.7546 21.3414 19.062 20.956 19.2909C20.5705 19.5199 20.1316 19.6642 19.6741 19.7125C16.9868 19.9855 14.2743 19.9855 11.587 19.7125C11.1294 19.6641 10.6905 19.5197 10.3051 19.2907C9.91966 19.0618 9.59822 18.7546 9.36624 18.3934C9.13427 18.0322 8.99813 17.6269 8.96858 17.2097C8.93903 16.7925 9.01689 16.3748 9.196 15.9896ZM16.6975 5.967C16.6975 6.50106 16.2204 6.93401 15.6319 6.93401C15.0435 6.93401 14.5664 6.50106 14.5664 5.967C14.5664 5.43294 15.0435 5 15.6319 5C16.2204 5 16.6975 5.43294 16.6975 5.967Z" stroke="black" stroke-width="1.29625" stroke-linecap="round" stroke-linejoin="round"/>
</svg>
